<svg width="350" height="350" viewBox="0 0 350 350" fill="none" xmlns="http://www.w3.org/2000/svg">
<g clip-path="url(#clip0_209_26)">
<path d="M61.9172 42.5377C63.7411 39.465 61.6292 36.5843 61.6292 31.3031C61.6292 21.1248 69.4048 13.347 73.2447 9.50616C84.7641 -1.92045 109.627 -3.74487 134.394 7.68174C141.498 12.6749 152.345 21.797 160.697 36.1042C172.312 56.1728 172.6 75.4732 173.08 95.4458C173.368 108.121 172.504 126.653 166.744 148.642C166.552 157.764 170.584 164.102 174.808 164.486C177.016 164.678 179.416 163.333 180.76 161.509C183.544 157.956 182.392 152.963 181.624 148.93C181.624 148.93 180.664 144.417 177.208 122.044C175.864 113.402 175.864 106.968 175.864 100.055C175.864 93.8134 175.768 83.4431 178.072 71.5363C179.416 64.2387 182.008 50.6036 190.647 36.3923C196.311 27.0782 205.815 11.5226 224.918 4.80108C240.085 -0.576145 259.092 0.480097 271.284 9.6982C274.163 11.9067 280.019 16.3237 281.939 23.7174C282.611 26.0219 282.419 27.0782 282.515 37.1605C282.611 50.2195 282.995 52.428 284.723 53.5802C287.315 55.3086 290.771 52.9081 295.379 51.6598C308.05 48.395 320.529 56.749 323.121 58.4774C338.673 69.0398 341.168 93.5254 337.617 109.753C330.417 143.361 294.515 157.38 288.755 159.684C271.284 166.502 253.428 166.598 251.701 166.502C241.333 166.406 230.677 164.678 210.326 165.446C201.975 165.734 192.951 166.502 190.839 171.495C190.071 173.32 190.167 175.816 191.415 177.545C195.447 183.306 210.23 177.833 227.606 173.992C235.861 172.167 259.476 167.462 283.859 169.287C298.738 170.439 313.138 171.687 327.153 181.866C331.473 185.034 345.488 195.213 349.136 213.457C351.536 225.556 348.176 235.158 347.504 237.078C346.256 240.343 342.128 251.77 331.281 257.627C322.353 262.524 314.194 260.604 312.658 265.309C311.794 267.901 314.098 269.342 315.442 275.199C316.69 280.96 315.73 285.665 314.866 289.506C312.946 298.628 308.53 304.774 305.842 308.423C303.73 311.207 296.818 320.329 285.779 325.706C261.588 337.421 235.093 322.442 233.077 321.289C214.262 310.343 207.351 292.291 200.727 275.199C191.319 250.809 190.743 226.516 190.551 217.01C190.455 211.152 190.263 189.547 190.263 189.547C191.127 190.508 188.727 187.339 187.479 186.763C186.231 186.187 184.312 186.475 183.064 187.723C181.912 188.875 181.912 190.604 181.912 191.18C182.008 206.831 179.32 222.579 181.048 238.134C184.408 267.805 181.816 262.428 184.216 273.182C188.055 290.754 190.647 302.373 198.327 314.376C198.327 314.376 204.375 323.786 206.583 338.285C207.159 342.126 206.007 343.567 205.719 344.047C203.703 347.984 198.327 350.288 194.775 349.616C189.495 348.656 187.191 341.358 182.2 324.554C174.616 299.204 170.776 286.337 169.336 277.599C167.608 267.613 166.936 260.412 165.784 247.16C164.057 227.956 163.193 218.354 164.153 212.016C166.168 198.381 171.256 188.107 166.936 184.554C165.784 183.594 163.961 183.21 162.521 183.69C158.969 185.034 158.777 192.332 158.681 195.789C158.297 206.927 156.473 218.162 157.337 229.3C157.817 235.158 158.873 257.051 150.521 277.311C140.442 301.701 120.666 313.992 114.619 317.353C106.363 322.058 96.0916 327.819 82.5562 326.091C79.1004 325.706 64.3171 323.402 55.1015 310.727C46.7499 299.108 47.8058 285.473 47.9978 283.265C47.9978 283.265 48.0938 281.728 49.9177 268.765C45.5979 269.246 39.1662 269.534 31.5826 268.189C27.1668 267.901 22.079 266.941 17.2792 264.252C6.71971 258.299 0.959969 245.912 0.0960085 235.446C-1.05594 221.523 6.23973 211.248 11.9995 203.374C32.7345 174.952 65.949 167.75 74.4926 166.022C97.1476 161.509 121.626 165.638 130.458 168.807C135.834 170.727 141.498 171.207 146.873 172.936C149.561 173.8 152.825 174.952 156.473 173.8C158.297 173.224 161.657 171.495 161.657 169.383C161.753 165.542 150.425 161.701 141.882 160.069C128.442 157.476 123.738 160.837 108.667 160.357C98.6835 160.069 91.6758 158.244 81.5003 155.652C67.4849 152.099 56.0614 149.218 43.39 141.152C35.7104 136.159 23.2309 128.189 15.6473 112.346C13.2474 106.68 7.67966 95.0617 10.6555 80.6584C13.7274 65.487 25.7268 50.1234 40.5102 46.6667C50.1097 44.4581 58.8453 47.6269 61.9172 42.5377Z" fill="url(#paint0_linear_209_26)"/>
</g>
<defs>
<linearGradient id="paint0_linear_209_26" x1="-49.5" y1="175" x2="425.5" y2="175" gradientUnits="userSpaceOnUse">
<stop stop-color="#0BB8DD" stop-opacity="0.47"/>
<stop offset="0.544204" stop-color="#26EE9F"/>
<stop offset="1" stop-color="#C2F2A7"/>
</linearGradient>
<clipPath id="clip0_209_26">
<rect width="350" height="350" fill="white"/>
</clipPath>
</defs>
</svg>
